<svg id="horizontverhaeltnis" xmlns="http://www.w3.org/2000/svg" xmlns:xlink="http://www.w3.org/1999/xlink" viewBox="0 0 652.97 497.06"><defs><style>.cls-horizontvh-1,.cls-horizontvh-2,.cls-horizontvh-3,.cls-horizontvh-4,.cls-horizontvh-5,.cls-horizontvh-6,.cls-horizontvh-7,.cls-horizontvh-8,.cls-horizontvh-9,.cls-horizontvh-10,.cls-horizontvh-11,.cls-horizontvh-12,.cls-horizontvh-13,.cls-horizontvh-14,.cls-horizontvh-15,.cls-horizontvh-16,.cls-horizontvh-17,.cls-horizontvh-18,.cls-horizontvh-19,.cls-horizontvh-20,.cls-horizontvh-21,.cls-horizontvh-22,.cls-horizontvh-23,.cls-horizontvh-24,.cls-horizontvh-25,.cls-horizontvh-26,.cls-horizontvh-27{fill:none;}.cls-horizontvh-2{stroke-dasharray:0 0 3.01 3.01;}.cls-horizontvh-2,.cls-horizontvh-3,.cls-horizontvh-4,.cls-horizontvh-28,.cls-horizontvh-5,.cls-horizontvh-6,.cls-horizontvh-7,.cls-horizontvh-8,.cls-horizontvh-9,.cls-horizontvh-10,.cls-horizontvh-11,.cls-horizontvh-12,.cls-horizontvh-13,.cls-horizontvh-14,.cls-horizontvh-15,.cls-horizontvh-16,.cls-horizontvh-17,.cls-horizontvh-18,.cls-horizontvh-19,.cls-horizontvh-20,.cls-horizontvh-21,.cls-horizontvh-22,.cls-horizontvh-23,.cls-horizontvh-24,.cls-horizontvh-25,.cls-horizontvh-26,.cls-horizontvh-27{stroke-miterlimit:10;}.cls-horizontvh-2,.cls-horizontvh-3,.cls-horizontvh-4,.cls-horizontvh-5,.cls-horizontvh-6,.cls-horizontvh-7,.cls-horizontvh-8,.cls-horizontvh-9,.cls-horizontvh-10,.cls-horizontvh-11,.cls-horizontvh-12,.cls-horizontvh-13,.cls-horizontvh-14,.cls-horizontvh-15,.cls-horizontvh-16,.cls-horizontvh-17,.cls-horizontvh-18,.cls-horizontvh-19,.cls-horizontvh-20,.cls-horizontvh-21,.cls-horizontvh-22,.cls-horizontvh-23,.cls-horizontvh-24,.cls-horizontvh-25,.cls-horizontvh-26,.cls-horizontvh-27{stroke:#4b5669;}.cls-horizontvh-3{stroke-dasharray:0 0 3.02 3.02;}.cls-horizontvh-29{clip-path:url(#clippath);}.cls-horizontvh-30{fill:#e9c593;}.cls-horizontvh-31{fill:#9fd7f2;}.cls-horizontvh-32{fill:#317e8c;}.cls-horizontvh-33{fill:#a9bddf;}.cls-horizontvh-34{fill:#c9e7f2;}.cls-horizontvh-35,.cls-horizontvh-28{fill:#101e4e;}.cls-horizontvh-36{fill:#44050f;}.cls-horizontvh-37{fill:#0d242d;}.cls-horizontvh-4{stroke-dasharray:0 0 3.02 3.02;}.cls-horizontvh-28{stroke:#101e4e;stroke-width:2px;}.cls-horizontvh-5{stroke-dasharray:0 0 3.02 3.02;}.cls-horizontvh-38{font-family:LucidaGrande, 'Lucida Grande';font-size:36px;}.cls-horizontvh-6{stroke-dasharray:0 0 2.97 2.97;}.cls-horizontvh-39{clip-path:url(#clippath-1);}.cls-horizontvh-40{clip-path:url(#clippath-2);}.cls-horizontvh-7{stroke-dasharray:0 0 3.17 3.17;}.cls-horizontvh-8{stroke-dasharray:0 0 3 3;}.cls-horizontvh-9{stroke-dasharray:0 0 3 3;}.cls-horizontvh-10{stroke-dasharray:0 0 3 3;}.cls-horizontvh-11{stroke-dasharray:0 0 3.22 3.22;}.cls-horizontvh-12{stroke-dasharray:0 0 2.99 2.99;}.cls-horizontvh-13{stroke-dasharray:0 0 2.99 2.99;}.cls-horizontvh-15{stroke-dasharray:0 0 2.99 2.99;}.cls-horizontvh-16{stroke-dasharray:0 0 2.89 2.89;}.cls-horizontvh-17{stroke-dasharray:0 0 2.74 2.74;}.cls-horizontvh-18{stroke-dasharray:0 0 3 3;}.cls-horizontvh-19{stroke-dasharray:0 0 2.95 2.95;}.cls-horizontvh-20{stroke-dasharray:0 0 3.05 3.05;}.cls-horizontvh-21{stroke-dasharray:0 0 3.01 3.01;}.cls-horizontvh-22{stroke-dasharray:0 0 3.01 3.01;}.cls-horizontvh-23{stroke-dasharray:0 0 2.98 2.98;}.cls-horizontvh-24{stroke-dasharray:0 0 2.94 2.94;}.cls-horizontvh-25{stroke-dasharray:0 0 2.98 2.98;}.cls-horizontvh-26{stroke-dasharray:0 0 2.85 2.85;}.cls-horizontvh-27{stroke-dasharray:0 0 2.95 2.95;}</style><symbol id="Baum" viewBox="0 0 167.23 229.68"><g><g><path class="cls-horizontvh-32" d="M31.36,144.32c-8.52,0-15.86-3.5-21.83-10.39C3.54,127.02,.5,118.5,.5,108.61c0-6.92,1.74-13.43,5.16-19.36,3.42-5.92,8.07-10.29,13.83-13,.12-.06,.22-.16,.26-.29,.04-.13,.03-.27-.03-.39-2.99-5.92-4.13-12.1-3.38-18.38,.75-6.29,2.97-11.79,6.59-16.34,3.62-4.55,8.04-7.6,13.14-9.07,2.06-.55,4.13-.83,6.14-.83,3.34,0,6.65,.78,9.84,2.31,.07,.03,.14,.05,.22,.05,.08,0,.17-.02,.25-.07,.14-.08,.24-.23,.25-.39,.86-9.39,4.43-17.28,10.63-23.45C69.15,3.49,75.84,.5,83.29,.5c7.89,0,15.02,3,21.21,8.91,5.75,6.4,9.12,14.29,9.97,23.45,.02,.16,.11,.31,.25,.39,.08,.04,.16,.06,.25,.06,.07,0,.15-.02,.22-.05,3.18-1.53,6.45-2.31,9.71-2.31,1.96,0,3.96,.28,5.94,.83,5.32,1.47,9.84,4.53,13.46,9.07,3.62,4.55,5.79,9.99,6.43,16.15,.84,6.32-.09,12.47-2.76,18.3h0c-.23,0-.44,.16-.49,.39-.05,.23,.06,.46,.28,.56,5.76,2.71,10.41,7.08,13.83,13,3.42,5.93,5.16,12.44,5.16,19.36,0,9.88-3.04,18.4-9.02,25.32-5.97,6.89-13.31,10.39-21.83,10.39H31.36Z"/><path class="cls-horizontvh-37" d="M83.29,1c7.74,0,14.75,2.94,20.84,8.75,5.69,6.34,9,14.13,9.85,23.16,.03,.33,.22,.62,.5,.78,.15,.09,.32,.13,.49,.13,.15,0,.3-.03,.43-.1,3.11-1.5,6.31-2.26,9.49-2.26,1.91,0,3.87,.27,5.81,.81,5.21,1.44,9.65,4.44,13.2,8.9,3.56,4.48,5.69,9.82,6.32,15.91,.82,6.13-.06,12.11-2.62,17.78-.31,.11-.56,.38-.63,.72-.1,.46,.13,.92,.55,1.12,5.66,2.66,10.24,6.97,13.6,12.79,3.38,5.85,5.09,12.28,5.09,19.11,0,9.76-2.99,18.17-8.9,24.99-5.87,6.78-13.09,10.21-21.45,10.21H31.36c-8.37,0-15.58-3.44-21.45-10.21-5.91-6.82-8.9-15.23-8.9-24.99,0-6.83,1.71-13.26,5.09-19.11,3.36-5.83,7.94-10.13,13.6-12.79,.24-.11,.43-.32,.52-.58,.09-.26,.07-.54-.05-.78-2.94-5.83-4.06-11.92-3.33-18.1,.74-6.19,2.92-11.61,6.49-16.09,3.55-4.46,7.89-7.46,12.87-8.9,2.03-.54,4.05-.81,6.02-.81,3.27,0,6.51,.76,9.62,2.26,.14,.07,.29,.1,.43,.1,.17,0,.34-.04,.49-.13,.29-.16,.47-.45,.5-.78,.85-9.27,4.37-17.06,10.5-23.15,5.66-5.81,12.23-8.75,19.53-8.75m0-1c-7.62,0-14.37,3.02-20.25,9.05-6.31,6.29-9.91,14.21-10.78,23.76-3.27-1.57-6.62-2.36-10.05-2.36-2.06,0-4.15,.28-6.28,.85-5.23,1.51-9.69,4.59-13.39,9.24-3.7,4.65-5.93,10.18-6.7,16.59-.76,6.41,.38,12.63,3.43,18.67-5.88,2.77-10.56,7.17-14.04,13.2-3.48,6.03-5.23,12.57-5.23,19.61,0,10.06,3.05,18.61,9.15,25.65,6.1,7.04,13.5,10.56,22.21,10.56h104.52c8.71,0,16.11-3.52,22.21-10.56,6.1-7.04,9.15-15.59,9.15-25.65,0-7.04-1.74-13.58-5.23-19.61-3.48-6.03-8.17-10.43-14.04-13.2h.33c2.83-6.03,3.81-12.32,2.94-18.86-.65-6.29-2.83-11.75-6.53-16.41-3.7-4.65-8.27-7.73-13.72-9.24-2.04-.57-4.07-.85-6.08-.85-3.35,0-6.66,.79-9.93,2.36-.87-9.3-4.25-17.22-10.13-23.76C98.53,3.02,91.34,0,83.29,0h0Z"/></g><path class="cls-horizontvh-36" d="M108.5,134.02h-10.77v-35.46c0-3.89-1.42-7.25-4.26-10.1-2.84-2.84-6.21-4.26-10.1-4.26s-7.25,1.42-10.1,4.26c-2.84,2.84-4.26,6.21-4.26,10.1v7.18h-10.32c-1.2,0-2.17,.6-2.92,1.79-.75,1.2-.82,2.39-.22,3.59l13.91,23.79v92.9c0,2.39,14.36,0,14.36,0,0,0,14.21,4.19,13.91,0v-65.08l13.91-23.34c.6-1.2,.6-2.39,0-3.59s-1.65-1.79-3.14-1.79Z"/></g></symbol><symbol id="Berge" viewBox="0 0 651.97 137.67"><g><polygon id="Berge-2" class="cls-horizontvh-33" points="651.97 135.47 507.53 69.48 506.72 69.46 477.12 81.68 352.55 14.31 351.61 14.3 240.3 72.35 211.04 57.1 210.11 57.11 132.58 98.87 0 74.47 0 2 651.97 2 651.97 135.47"/><rect id="Horizont" class="cls-horizontvh-35" width="651.97" height="2"/><polygon id="Bergkamm" class="cls-horizontvh-35" points="210.11 57.11 211.04 57.1 240.3 72.35 351.61 14.3 352.55 14.31 477.12 81.68 506.72 69.46 507.53 69.48 651.97 135.47 651.97 137.67 507.08 71.48 477.44 83.71 476.59 83.67 352.06 16.32 240.77 74.36 239.84 74.36 210.59 59.12 133.22 100.8 132.56 100.9 0 76.51 0 74.47 132.58 98.87 210.11 57.11"/></g></symbol><symbol id="Katze_4" viewBox="0 0 167.51 156.95"><g><path id="Katzenkoerper" class="cls-horizontvh-30" d="M146.18,135.26h-20.81l-.37,.15-19.92,19.93v-42.46c0-16.77,13.77-30.41,30.7-30.41s30.7,13.64,30.7,30.41v42.46l-19.93-19.93-.37-.15Zm-17.69-20.29c0-.74-.15-1.45-.41-2.11-.83-2.15-2.87-3.61-5.31-3.61-3.15,0-5.72,2.57-5.72,5.72s2.57,5.72,5.72,5.72,5.4-2.21,5.69-5.13v-.14c0-.14,.02-.27,.02-.41v-.04h0Zm25.98,.59v-.14c0-.14,.02-.27,.02-.41v-.04c0-.74-.15-1.44-.4-2.09-.83-2.16-2.87-3.63-5.32-3.63-3.15,0-5.72,2.57-5.72,5.72s2.57,5.72,5.72,5.72,5.4-2.21,5.69-5.13h0Zm-70.2-42.21v29.83c4.83,.79,8.65,.86,10.31,.86,4.14-19.32,21.4-33.29,41.19-33.29,3.07,0,6.23,.42,9.89,1.32V5.72c0-2.58-2.1-4.69-4.69-4.69h-10.4c-2.58,0-4.69,2.1-4.69,4.69V52.54l-.83,.41-41.62-31.21,.31-.93h10.4c5.45,0,9.89-4.44,9.89-9.89V5.42c0-2.38-2.15-4.39-4.69-4.39H42.14c-11.19,0-20.29,9.1-20.29,20.29V104.56c0,6.02-4.9,10.92-10.92,10.92-5.45,0-9.89,4.44-9.89,9.89s4.44,9.89,9.89,9.89c16.93,0,30.7-13.77,30.7-30.7v-31.53l22.21-11.1-9.28,28.12c4.35,3.39,8.93,6.18,13.61,8.3l15.15-25.26h0l.96-1.6v1.86h-.01Z"/><path id="Katzenaugen" class="cls-horizontvh-35" d="M128.49,115v-.04c0-.74-.15-1.45-.41-2.11-.83-2.15-2.87-3.61-5.31-3.61-3.15,0-5.72,2.57-5.72,5.72s2.57,5.72,5.72,5.72,5.4-2.21,5.69-5.13v-.14c0-.14,.02-.27,.02-.41h0Zm26.01,0c0,.14,0,.27-.02,.41v.14c-.29,2.92-2.69,5.13-5.69,5.13-3.15,0-5.72-2.57-5.72-5.72s2.57-5.72,5.72-5.72c2.44,0,4.49,1.47,5.32,3.63,.26,.65,.4,1.35,.4,2.09v.04h0Z"/><path id="Katzenfell" class="cls-horizontvh-35" d="M54.54,90.04l9.28-28.12-22.21,11.1v3.73l.09,.13c.31,.47,.63,.93,.95,1.39,3.04,4.36,6.54,8.32,10.94,12.33l.59,.54,.02-.07,.34-1.03Zm29.14,14.09h-.01c-5.37-.91-10.58-2.47-15.5-4.65h-.01l-.12-.05-.42-.18h0l15.69-26.15,.96-1.6v32.72h0l-.59-.1h0Z"/><path id="Katzenkontur" class="cls-horizontvh-35" d="M146.06,73.23l.64-.5V5.72c0-3.15-2.57-5.72-5.72-5.72h-10.4c-3.15,0-5.72,2.57-5.72,5.72V51.51l-39.55-29.66h8.85c6.02,0,10.92-4.9,10.92-10.92V5.43C105.08,2.49,102.46,0,99.36,0H42.14C30.38,0,20.81,9.57,20.81,21.33V104.56c0,5.45-4.44,9.89-9.89,9.89-6.02,0-10.92,4.9-10.92,10.92s4.9,10.92,10.92,10.92c17.5,0,31.73-14.23,31.73-31.73v-26.29c-.32-.46-.64-.92-.95-1.39l-.09-.13v27.81c0,16.93-13.77,30.7-30.7,30.7-5.45,0-9.89-4.44-9.89-9.89s4.44-9.89,9.89-9.89c6.02,0,10.92-4.9,10.92-10.92V21.32C21.83,10.13,30.93,1.03,42.12,1.03h57.23c2.54,0,4.69,2.01,4.69,4.39v5.5c0,5.45-4.44,9.89-9.89,9.89h-10.4l-.31,.93,41.62,31.21,.83-.41V5.72c0-2.58,2.1-4.69,4.69-4.69h10.4c2.58,0,4.69,2.1,4.69,4.69V72.07c-3.66-.9-6.82-1.32-9.89-1.32-19.8,0-37.05,13.98-41.19,33.29-1.67,0-5.48-.08-10.31-.86v1.04c5.3,.85,9.37,.85,10.73,.85l.51-.41c3.88-19.05,20.82-32.88,40.27-32.88,3.16,0,6.42,.46,10.28,1.45h0Zm21.45,83.35v-43.7c0-17.33-14.23-31.44-31.73-31.44s-31.73,14.1-31.73,31.44v43.7l.88,.37,20.66-20.66h20.38l20.66,20.66,.88-.37h0Zm-1.03-1.25l-19.93-19.93-.37-.15h-20.81l-.37,.15-19.92,19.94v-42.46c0-16.77,13.77-30.41,30.7-30.41s30.7,13.64,30.7,30.41v42.46h0ZM54.54,90.04c4.35,3.39,8.93,6.18,13.61,8.3l15.15-25.26h0l-15.69,26.14c-4.62-2.1-9.13-4.83-13.42-8.15l.34-1.03h0Z"/></g></symbol><symbol id="Verhaeltnis" viewBox="0 0 71.13 229.68"><g><rect class="cls-horizontvh-34" y="0" width="71.13" height="65.83"/><rect class="cls-horizontvh-31" y="65.83" width="71.13" height="163.85"/><path d="M51.11,58.74l-5.48-13.96H24.28l-5.55,13.96h-6.64L32.07,8.35h7.08l19.68,50.39h-7.73Zm-7.56-19.27l-8.58-21.72-8.61,21.72h17.19Z"/><path d="M22.01,222.59v-50.39h13.07c5.04,0,8.9,.95,11.59,2.86,2.69,1.91,4.03,4.65,4.03,8.24,0,6.11-3.45,10.45-10.35,13.04,8.24,2.52,12.36,7.07,12.36,13.65,0,4.09-1.36,7.21-4.08,9.36-2.72,2.16-6.65,3.23-11.78,3.23h-14.84Zm7.08-28.26h2.28c3.81,0,6.77-.82,8.87-2.45,2.1-1.63,3.15-3.94,3.15-6.91,0-4.95-3.84-7.42-11.51-7.42h-2.79v16.79Zm0,22.91h1.46c5.24,0,8.64-.33,10.18-.99,2.95-1.25,4.43-3.56,4.43-6.95,0-3-1.34-5.49-4.02-7.47-2.68-1.99-6.03-2.98-10.04-2.98h-2.01v18.38Z"/></g></symbol><clipPath id="clippath"><rect class="cls-horizontvh-1" x="476.08" y="383.13" width="64.07" height="60.03"/></clipPath><clipPath id="clippath-1"><rect class="cls-horizontvh-1" x="452.51" y="336.52" width="41.75" height="39.12"/></clipPath><clipPath id="clippath-2"><rect class="cls-horizontvh-1" x="379.98" y="311.86" width="31.58" height="29.59"/></clipPath></defs><use width="651.97" height="137.67" transform="translate(.5 247.01) scale(1 -1)" xlink:href="#Berge"/><g id="Perspektivlinien"><line class="cls-horizontvh-28" x1=".5" y1="246.61" x2="652.47" y2="246.61"/><g><line class="cls-horizontvh-35" x1="326.48" y1="246.61" x2="326.48" y2="496.06"/><g><line class="cls-horizontvh-14" x1="326.48" y1="246.61" x2="326.48" y2="248.11"/><line class="cls-horizontvh-6" x1="326.48" y1="251.08" x2="326.48" y2="493.08"/><line class="cls-horizontvh-14" x1="326.48" y1="494.56" x2="326.48" y2="496.06"/></g></g><g><line class="cls-horizontvh-35" x1="68.03" y1="52.15" x2="68.03" y2="443.16"/><g><line class="cls-horizontvh-14" x1="68.03" y1="52.15" x2="68.03" y2="53.65"/><line class="cls-horizontvh-21" x1="68.03" y1="56.65" x2="68.03" y2="440.16"/><line class="cls-horizontvh-14" x1="68.03" y1="441.66" x2="68.03" y2="443.16"/></g></g><g><line class="cls-horizontvh-35" x1="583.94" y1="52.15" x2="583.94" y2="443.16"/><g><line class="cls-horizontvh-14" x1="583.94" y1="52.15" x2="583.94" y2="53.65"/><line class="cls-horizontvh-21" x1="583.94" y1="56.65" x2="583.94" y2="440.16"/><line class="cls-horizontvh-14" x1="583.94" y1="441.66" x2="583.94" y2="443.16"/></g></g><g><line class="cls-horizontvh-35" x1="540.28" y1="84.24" x2="540.28" y2="410.04"/><g><line class="cls-horizontvh-14" x1="540.28" y1="84.24" x2="540.28" y2="85.74"/><line class="cls-horizontvh-4" x1="540.28" y1="88.76" x2="540.28" y2="407.03"/><line class="cls-horizontvh-14" x1="540.28" y1="408.54" x2="540.28" y2="410.04"/></g></g><g><line class="cls-horizontvh-35" x1="111.68" y1="84.04" x2="111.69" y2="410.04"/><g><line class="cls-horizontvh-14" x1="111.68" y1="84.04" x2="111.68" y2="85.54"/><line class="cls-horizontvh-3" x1="111.68" y1="88.56" x2="111.69" y2="407.03"/><line class="cls-horizontvh-14" x1="111.69" y1="408.54" x2="111.69" y2="410.04"/></g></g><g><line class="cls-horizontvh-35" x1="157.05" y1="117.92" x2="157.04" y2="376.61"/><g><line class="cls-horizontvh-14" x1="157.05" y1="117.92" x2="157.05" y2="119.42"/><line class="cls-horizontvh-22" x1="157.05" y1="122.43" x2="157.04" y2="373.61"/><line class="cls-horizontvh-14" x1="157.04" y1="375.11" x2="157.04" y2="376.61"/></g></g><g><line class="cls-horizontvh-35" x1="202.12" y1="152.47" x2="202.11" y2="341.46"/><g><line class="cls-horizontvh-14" x1="202.12" y1="152.47" x2="202.12" y2="153.97"/><line class="cls-horizontvh-19" x1="202.12" y1="156.93" x2="202.11" y2="338.48"/><line class="cls-horizontvh-14" x1="202.11" y1="339.96" x2="202.11" y2="341.46"/></g></g><g><line class="cls-horizontvh-35" x1="246.31" y1="185.52" x2="246.35" y2="307.66"/><g><line class="cls-horizontvh-14" x1="246.31" y1="185.52" x2="246.31" y2="187.02"/><line class="cls-horizontvh-20" x1="246.31" y1="190.08" x2="246.35" y2="304.63"/><line class="cls-horizontvh-14" x1="246.35" y1="306.16" x2="246.35" y2="307.66"/></g></g><g><line class="cls-horizontvh-14" x1="175.59" y1="443.16" x2="174.09" y2="443.16"/><line class="cls-horizontvh-13" x1="171.1" y1="443.16" x2="71.03" y2="443.16"/><line class="cls-horizontvh-14" x1="69.53" y1="443.16" x2="68.03" y2="443.16"/></g><g><line class="cls-horizontvh-14" x1="201.58" y1="410.04" x2="200.08" y2="410.04"/><line class="cls-horizontvh-9" x1="197.08" y1="410.04" x2="114.68" y2="410.04"/><line class="cls-horizontvh-14" x1="113.19" y1="410.04" x2="111.69" y2="410.04"/></g><g><line class="cls-horizontvh-14" x1="227.72" y1="375.64" x2="226.22" y2="375.64"/><line class="cls-horizontvh-24" x1="223.28" y1="375.64" x2="160.01" y2="375.64"/><line class="cls-horizontvh-14" x1="158.54" y1="375.64" x2="157.04" y2="375.64"/></g><g><line class="cls-horizontvh-14" x1="253.56" y1="341.46" x2="252.06" y2="341.46"/><line class="cls-horizontvh-26" x1="249.21" y1="341.46" x2="205.04" y2="341.46"/><line class="cls-horizontvh-14" x1="203.61" y1="341.46" x2="202.11" y2="341.46"/></g><g><line class="cls-horizontvh-14" x1="279.55" y1="307.66" x2="278.05" y2="307.66"/><line class="cls-horizontvh-17" x1="275.3" y1="307.66" x2="249.22" y2="307.66"/><line class="cls-horizontvh-14" x1="247.85" y1="307.66" x2="246.35" y2="307.66"/></g><g><line class="cls-horizontvh-14" x1="476.95" y1="443.16" x2="478.45" y2="443.16"/><line class="cls-horizontvh-23" x1="481.42" y1="443.16" x2="581.22" y2="443.16"/><line class="cls-horizontvh-14" x1="582.71" y1="443.16" x2="584.21" y2="443.16"/></g><g><line class="cls-horizontvh-35" x1="451.71" y1="410.04" x2="540.28" y2="410.04"/><g><line class="cls-horizontvh-14" x1="451.71" y1="410.04" x2="453.21" y2="410.04"/><line class="cls-horizontvh-27" x1="456.16" y1="410.04" x2="537.31" y2="410.04"/><line class="cls-horizontvh-14" x1="538.78" y1="410.04" x2="540.28" y2="410.04"/></g></g><g><line class="cls-horizontvh-14" x1="425.42" y1="375.64" x2="426.92" y2="375.64"/><line class="cls-horizontvh-16" x1="429.81" y1="375.64" x2="491.98" y2="375.64"/><line class="cls-horizontvh-14" x1="493.43" y1="375.64" x2="494.93" y2="375.64"/></g><g><line class="cls-horizontvh-35" x1="399.28" y1="341.46" x2="449.86" y2="341.46"/><g><line class="cls-horizontvh-14" x1="399.28" y1="341.46" x2="400.78" y2="341.46"/><line class="cls-horizontvh-7" x1="403.95" y1="341.46" x2="446.77" y2="341.46"/><line class="cls-horizontvh-14" x1="448.36" y1="341.46" x2="449.86" y2="341.46"/></g></g><g><line class="cls-horizontvh-14" x1="373.62" y1="307.66" x2="375.12" y2="307.66"/><line class="cls-horizontvh-11" x1="378.34" y1="307.66" x2="402.51" y2="307.66"/><line class="cls-horizontvh-14" x1="404.12" y1="307.66" x2="405.62" y2="307.66"/></g><g><line class="cls-horizontvh-35" x1="405.62" y1="185.52" x2="405.66" y2="307.66"/><g><line class="cls-horizontvh-14" x1="405.62" y1="185.52" x2="405.62" y2="187.02"/><line class="cls-horizontvh-20" x1="405.62" y1="190.08" x2="405.66" y2="304.63"/><line class="cls-horizontvh-14" x1="405.66" y1="306.16" x2="405.66" y2="307.66"/></g></g><g><line class="cls-horizontvh-35" x1="449.86" y1="152.47" x2="449.85" y2="341.46"/><g><line class="cls-horizontvh-14" x1="449.86" y1="152.47" x2="449.86" y2="153.97"/><line class="cls-horizontvh-19" x1="449.86" y1="156.93" x2="449.85" y2="338.48"/><line class="cls-horizontvh-14" x1="449.85" y1="339.96" x2="449.85" y2="341.46"/></g></g><g><line class="cls-horizontvh-35" x1="494.93" y1="117.92" x2="494.92" y2="375.64"/><g><line class="cls-horizontvh-14" x1="494.93" y1="117.92" x2="494.93" y2="119.42"/><line class="cls-horizontvh-10" x1="494.93" y1="122.42" x2="494.92" y2="372.64"/><line class="cls-horizontvh-14" x1="494.92" y1="374.14" x2="494.92" y2="375.64"/></g></g><g><line class="cls-horizontvh-14" x1="0" y1="0" x2="1.2" y2=".9"/><line class="cls-horizontvh-2" x1="3.6" y1="2.72" x2="324.09" y2="244.8"/><line class="cls-horizontvh-14" x1="325.29" y1="245.71" x2="326.48" y2="246.61"/></g><g><line class="cls-horizontvh-14" x1="0" y1="146.55" x2="1.43" y2="146.99"/><line class="cls-horizontvh-8" x1="4.3" y1="147.87" x2="323.62" y2="245.74"/><line class="cls-horizontvh-14" x1="325.05" y1="246.17" x2="326.48" y2="246.61"/></g><g><line class="cls-horizontvh-14" x1="651.97" y1="0" x2="650.77" y2=".91"/><line class="cls-horizontvh-18" x1="648.38" y1="2.72" x2="328.88" y2="244.8"/><line class="cls-horizontvh-14" x1="327.68" y1="245.71" x2="326.48" y2="246.61"/></g><g><line class="cls-horizontvh-14" x1="651.97" y1="146.55" x2="650.53" y2="146.99"/><line class="cls-horizontvh-12" x1="647.68" y1="147.87" x2="329.34" y2="245.73"/><line class="cls-horizontvh-14" x1="327.92" y1="246.17" x2="326.48" y2="246.61"/></g><g><line class="cls-horizontvh-14" x1="-1.42" y1="496.06" x2="-.22" y2="495.15"/><line class="cls-horizontvh-15" x1="2.15" y1="493.35" x2="324.1" y2="248.43"/><line class="cls-horizontvh-14" x1="325.29" y1="247.52" x2="326.48" y2="246.61"/></g><g><line class="cls-horizontvh-14" x1="135.63" y1="495.59" x2="136.54" y2="494.4"/><line class="cls-horizontvh-5" x1="138.38" y1="492.01" x2="324.65" y2="249"/><line class="cls-horizontvh-14" x1="325.57" y1="247.8" x2="326.48" y2="246.61"/></g><g><line class="cls-horizontvh-14" x1="517.34" y1="495.59" x2="516.42" y2="494.4"/><line class="cls-horizontvh-5" x1="514.59" y1="492.01" x2="328.31" y2="249"/><line class="cls-horizontvh-14" x1="327.4" y1="247.8" x2="326.48" y2="246.61"/></g><g><line class="cls-horizontvh-14" x1="653.39" y1="496.06" x2="652.19" y2="495.15"/><line class="cls-horizontvh-25" x1="649.82" y1="493.35" x2="328.86" y2="248.43"/><line class="cls-horizontvh-14" x1="327.68" y1="247.52" x2="326.48" y2="246.61"/></g></g><g id="Verhaeltnisbalken"><text class="cls-horizontvh-38" transform="translate(238.17 67.14)"><tspan x="0" y="0">A:B=1:2.5</tspan></text><use width="71.13" height="229.68" transform="translate(111.68 180.36)" xlink:href="#Verhaeltnis"/><use width="71.13" height="229.68" transform="translate(202.11 208.57) scale(.58)" xlink:href="#Verhaeltnis"/><use width="71.13" height="229.68" transform="translate(246.35 222.05) scale(.37)" xlink:href="#Verhaeltnis"/></g><use width="167.23" height="229.68" transform="translate(374.63 223.19) scale(.37)" xlink:href="#Baum"/><use width="167.23" height="229.68" transform="translate(401.4 209.65) scale(.58)" xlink:href="#Baum"/><use width="167.23" height="229.68" transform="translate(456.54 182.22)" xlink:href="#Baum"/><g class="cls-horizontvh-29"><use width="167.51" height="156.95" transform="translate(476.08 443.16) scale(.38 -.38)" xlink:href="#Katze_4"/></g><g class="cls-horizontvh-39"><use width="167.51" height="156.95" transform="translate(494.26 375.64) rotate(-180) scale(.25)" xlink:href="#Katze_4"/></g><g class="cls-horizontvh-40"><use width="167.51" height="156.95" transform="translate(379.98 341.46) scale(.19 -.19)" xlink:href="#Katze_4"/></g></svg>