<svg id="linearperspektive" xmlns="http://www.w3.org/2000/svg" xmlns:xlink="http://www.w3.org/1999/xlink" viewBox="0 0 651.97 396.85"><defs><style>.cls-linearPerspective-1{fill:none;}.cls-linearPerspective-2{clip-path:url(#clippath);}.cls-linearPerspective-3{fill:#e9c593;}.cls-linearPerspective-4{fill:#fff;}.cls-linearPerspective-5{fill:#a9bddf;}.cls-linearPerspective-6{fill:#101e4e;}.cls-linearPerspective-7{clip-path:url(#clippath-1);}.cls-linearPerspective-8{clip-path:url(#clippath-2);}</style><symbol id="Berge" viewBox="0 0 651.97 137.67"><g><polygon id="Berge-2" class="cls-linearPerspective-5" points="651.97 135.47 507.53 69.48 506.72 69.46 477.12 81.68 352.55 14.31 351.61 14.3 240.3 72.35 211.04 57.1 210.11 57.11 132.58 98.87 0 74.47 0 2 651.97 2 651.97 135.47"/><rect id="Horizont" class="cls-linearPerspective-6" width="651.97" height="2"/><polygon id="Bergkamm" class="cls-linearPerspective-6" points="210.11 57.11 211.04 57.1 240.3 72.35 351.61 14.3 352.55 14.31 477.12 81.68 506.72 69.46 507.53 69.48 651.97 135.47 651.97 137.67 507.08 71.48 477.44 83.71 476.59 83.67 352.06 16.32 240.77 74.36 239.84 74.36 210.59 59.12 133.22 100.8 132.56 100.9 0 76.51 0 74.47 132.58 98.87 210.11 57.11"/></g></symbol><symbol id="Katze" viewBox="0 0 167.51 156.95"><g><path id="Katzenkoerper" class="cls-linearPerspective-3" d="M146.18,135.26h-20.81l-.37,.15-19.92,19.93v-42.46c0-16.77,13.77-30.41,30.7-30.41s30.7,13.64,30.7,30.41v42.46l-19.93-19.93-.37-.15Zm-17.69-20.29c0-.74-.15-1.45-.41-2.11-.83-2.15-2.87-3.61-5.31-3.61-3.15,0-5.72,2.57-5.72,5.72s2.57,5.72,5.72,5.72,5.4-2.21,5.69-5.13v-.14c0-.14,.02-.27,.02-.41v-.04h0Zm25.98,.59v-.14c0-.14,.02-.27,.02-.41v-.04c0-.74-.15-1.44-.4-2.09-.83-2.16-2.87-3.63-5.32-3.63-3.15,0-5.72,2.57-5.72,5.72s2.57,5.72,5.72,5.72,5.4-2.21,5.69-5.13h0Zm-70.2-42.21v29.83c4.83,.79,8.65,.86,10.31,.86,4.14-19.32,21.4-33.29,41.19-33.29,3.07,0,6.23,.42,9.89,1.32V5.72c0-2.58-2.1-4.69-4.69-4.69h-10.4c-2.58,0-4.69,2.1-4.69,4.69V52.54l-.83,.41-41.62-31.21,.31-.93h10.4c5.45,0,9.89-4.44,9.89-9.89V5.42c0-2.38-2.15-4.39-4.69-4.39H42.14c-11.19,0-20.29,9.1-20.29,20.29V104.56c0,6.02-4.9,10.92-10.92,10.92-5.45,0-9.89,4.44-9.89,9.89s4.44,9.89,9.89,9.89c16.93,0,30.7-13.77,30.7-30.7v-31.53l22.21-11.1-9.28,28.12c4.35,3.39,8.93,6.18,13.61,8.3l15.15-25.26h0l.96-1.6v1.86h-.01Z"/><path id="Katzenaugen" class="cls-linearPerspective-6" d="M128.49,115v-.04c0-.74-.15-1.45-.41-2.11-.83-2.15-2.87-3.61-5.31-3.61-3.15,0-5.72,2.57-5.72,5.72s2.57,5.72,5.72,5.72,5.4-2.21,5.69-5.13v-.14c0-.14,.02-.27,.02-.41h0Zm26.01,0c0,.14,0,.27-.02,.41v.14c-.29,2.92-2.69,5.13-5.69,5.13-3.15,0-5.72-2.57-5.72-5.72s2.57-5.72,5.72-5.72c2.44,0,4.49,1.47,5.32,3.63,.26,.65,.4,1.35,.4,2.09v.04h0Z"/><path id="Katzenfell" class="cls-linearPerspective-6" d="M54.54,90.04l9.28-28.12-22.21,11.1v3.73l.09,.13c.31,.47,.63,.93,.95,1.39,3.04,4.36,6.54,8.32,10.94,12.33l.59,.54,.02-.07,.34-1.03Zm29.14,14.09h-.01c-5.37-.91-10.58-2.47-15.5-4.65h-.01l-.12-.05-.42-.18h0l15.69-26.15,.96-1.6v32.72h0l-.59-.1h0Z"/><path id="Katzenkontur" class="cls-linearPerspective-6" d="M146.06,73.23l.64-.5V5.72c0-3.15-2.57-5.72-5.72-5.72h-10.4c-3.15,0-5.72,2.57-5.72,5.72V51.51l-39.55-29.66h8.85c6.02,0,10.92-4.9,10.92-10.92V5.43C105.08,2.49,102.46,0,99.36,0H42.14C30.38,0,20.81,9.57,20.81,21.33V104.56c0,5.45-4.44,9.89-9.89,9.89-6.02,0-10.92,4.9-10.92,10.92s4.9,10.92,10.92,10.92c17.5,0,31.73-14.23,31.73-31.73v-26.29c-.32-.46-.64-.92-.95-1.39l-.09-.13v27.81c0,16.93-13.77,30.7-30.7,30.7-5.45,0-9.89-4.44-9.89-9.89s4.44-9.89,9.89-9.89c6.02,0,10.92-4.9,10.92-10.92V21.32C21.83,10.13,30.93,1.03,42.12,1.03h57.23c2.54,0,4.69,2.01,4.69,4.39v5.5c0,5.45-4.44,9.89-9.89,9.89h-10.4l-.31,.93,41.62,31.21,.83-.41V5.72c0-2.58,2.1-4.69,4.69-4.69h10.4c2.58,0,4.69,2.1,4.69,4.69V72.07c-3.66-.9-6.82-1.32-9.89-1.32-19.8,0-37.05,13.98-41.19,33.29-1.67,0-5.48-.08-10.31-.86v1.04c5.3,.85,9.37,.85,10.73,.85l.51-.41c3.88-19.05,20.82-32.88,40.27-32.88,3.16,0,6.42,.46,10.28,1.45h0Zm21.45,83.35v-43.7c0-17.33-14.23-31.44-31.73-31.44s-31.73,14.1-31.73,31.44v43.7l.88,.37,20.66-20.66h20.38l20.66,20.66,.88-.37h0Zm-1.03-1.25l-19.93-19.93-.37-.15h-20.81l-.37,.15-19.92,19.94v-42.46c0-16.77,13.77-30.41,30.7-30.41s30.7,13.64,30.7,30.41v42.46h0ZM54.54,90.04c4.35,3.39,8.93,6.18,13.61,8.3l15.15-25.26h0l-15.69,26.14c-4.62-2.1-9.13-4.83-13.42-8.15l.34-1.03h0Z"/></g></symbol><clipPath id="clippath"><rect class="cls-linearPerspective-1" x="243.82" y="324.61" width="82.08" height="72.2"/></clipPath><clipPath id="clippath-1"><rect class="cls-linearPerspective-1" x="356.43" y="282.72" width="55.28" height="51.79"/></clipPath><clipPath id="clippath-2"><rect class="cls-linearPerspective-1" x="276.52" y="262.45" width="41.88" height="39.24"/></clipPath></defs><rect id="Hintergrund" class="cls-linearPerspective-4" width="651.97" height="396.85"/><path id="Schienen" class="cls-linearPerspective-6" d="M331.82,203.15h.95s241.86,193.71,241.86,193.71h-16.19c-74.87-63.98-151.87-129.82-226.62-193.7h0ZM93.65,396.85l227.14-193.7h-1L77.46,396.85h16.19Z"/><use width="651.97" height="137.67" transform="translate(0 203.16) scale(1 -1)" xlink:href="#Berge"/><g class="cls-linearPerspective-2"><use width="167.51" height="156.95" transform="translate(243.82 396.81) scale(.49 -.46)" xlink:href="#Katze"/></g><g class="cls-linearPerspective-7"><use width="167.51" height="156.95" transform="translate(356.43 334.51) scale(.33 -.33)" xlink:href="#Katze"/></g><g class="cls-linearPerspective-8"><use width="167.51" height="156.95" transform="translate(276.52 301.69) scale(.25 -.25)" xlink:href="#Katze"/></g></svg>