<svg id="relative-gewohnte-groesse" xmlns="http://www.w3.org/2000/svg" xmlns:xlink="http://www.w3.org/1999/xlink" viewBox="0 0 708.66 283.46"><defs><style>.cls-relativeFamilarSize-1{fill:#e9c593;}.cls-relativeFamilarSize-2{fill:#fff;}.cls-relativeFamilarSize-3{fill:#a9bddf;}.cls-relativeFamilarSize-4{fill:#101e4e;}.cls-relativeFamilarSize-5{fill:#2e4a7a;}.cls-relativeFamilarSize-6{font-family:LucidaGrande, 'Lucida Grande';font-size:36px;}</style><symbol id="Katze" viewBox="0 0 167.51 156.95"><g><path id="Katzenkoerper" class="cls-relativeFamilarSize-1" d="M146.18,135.26h-20.81l-.37,.15-19.92,19.93v-42.46c0-16.77,13.77-30.41,30.7-30.41s30.7,13.64,30.7,30.41v42.46l-19.93-19.93-.37-.15Zm-17.69-20.29c0-.74-.15-1.45-.41-2.11-.83-2.15-2.87-3.61-5.31-3.61-3.15,0-5.72,2.57-5.72,5.72s2.57,5.72,5.72,5.72,5.4-2.21,5.69-5.13v-.14c0-.14,.02-.27,.02-.41v-.04h0Zm25.98,.59v-.14c0-.14,.02-.27,.02-.41v-.04c0-.74-.15-1.44-.4-2.09-.83-2.16-2.87-3.63-5.32-3.63-3.15,0-5.72,2.57-5.72,5.72s2.57,5.72,5.72,5.72,5.4-2.21,5.69-5.13h0Zm-70.2-42.21v29.83c4.83,.79,8.65,.86,10.31,.86,4.14-19.32,21.4-33.29,41.19-33.29,3.07,0,6.23,.42,9.89,1.32V5.72c0-2.58-2.1-4.69-4.69-4.69h-10.4c-2.58,0-4.69,2.1-4.69,4.69V52.54l-.83,.41-41.62-31.21,.31-.93h10.4c5.45,0,9.89-4.44,9.89-9.89V5.42c0-2.38-2.15-4.39-4.69-4.39H42.14c-11.19,0-20.29,9.1-20.29,20.29V104.56c0,6.02-4.9,10.92-10.92,10.92-5.45,0-9.89,4.44-9.89,9.89s4.44,9.89,9.89,9.89c16.93,0,30.7-13.77,30.7-30.7v-31.53l22.21-11.1-9.28,28.12c4.35,3.39,8.93,6.18,13.61,8.3l15.15-25.26h0l.96-1.6v1.86h-.01Z"/><path id="Katzenaugen" class="cls-relativeFamilarSize-4" d="M128.49,115v-.04c0-.74-.15-1.45-.41-2.11-.83-2.15-2.87-3.61-5.31-3.61-3.15,0-5.72,2.57-5.72,5.72s2.57,5.72,5.72,5.72,5.4-2.21,5.69-5.13v-.14c0-.14,.02-.27,.02-.41h0Zm26.01,0c0,.14,0,.27-.02,.41v.14c-.29,2.92-2.69,5.13-5.69,5.13-3.15,0-5.72-2.57-5.72-5.72s2.57-5.72,5.72-5.72c2.44,0,4.49,1.47,5.32,3.63,.26,.65,.4,1.35,.4,2.09v.04h0Z"/><path id="Katzenfell" class="cls-relativeFamilarSize-4" d="M54.54,90.04l9.28-28.12-22.21,11.1v3.73l.09,.13c.31,.47,.63,.93,.95,1.39,3.04,4.36,6.54,8.32,10.94,12.33l.59,.54,.02-.07,.34-1.03Zm29.14,14.09h-.01c-5.37-.91-10.58-2.47-15.5-4.65h-.01l-.12-.05-.42-.18h0l15.69-26.15,.96-1.6v32.72h0l-.59-.1h0Z"/><path id="Katzenkontur" class="cls-relativeFamilarSize-4" d="M146.06,73.23l.64-.5V5.72c0-3.15-2.57-5.72-5.72-5.72h-10.4c-3.15,0-5.72,2.57-5.72,5.72V51.51l-39.55-29.66h8.85c6.02,0,10.92-4.9,10.92-10.92V5.43C105.08,2.49,102.46,0,99.36,0H42.14C30.38,0,20.81,9.57,20.81,21.33V104.56c0,5.45-4.44,9.89-9.89,9.89-6.02,0-10.92,4.9-10.92,10.92s4.9,10.92,10.92,10.92c17.5,0,31.73-14.23,31.73-31.73v-26.29c-.32-.46-.64-.92-.95-1.39l-.09-.13v27.81c0,16.93-13.77,30.7-30.7,30.7-5.45,0-9.89-4.44-9.89-9.89s4.44-9.89,9.89-9.89c6.02,0,10.92-4.9,10.92-10.92V21.32C21.83,10.13,30.93,1.03,42.12,1.03h57.23c2.54,0,4.69,2.01,4.69,4.39v5.5c0,5.45-4.44,9.89-9.89,9.89h-10.4l-.31,.93,41.62,31.21,.83-.41V5.72c0-2.58,2.1-4.69,4.69-4.69h10.4c2.58,0,4.69,2.1,4.69,4.69V72.07c-3.66-.9-6.82-1.32-9.89-1.32-19.8,0-37.05,13.98-41.19,33.29-1.67,0-5.48-.08-10.31-.86v1.04c5.3,.85,9.37,.85,10.73,.85l.51-.41c3.88-19.05,20.82-32.88,40.27-32.88,3.16,0,6.42,.46,10.28,1.45h0Zm21.45,83.35v-43.7c0-17.33-14.23-31.44-31.73-31.44s-31.73,14.1-31.73,31.44v43.7l.88,.37,20.66-20.66h20.38l20.66,20.66,.88-.37h0Zm-1.03-1.25l-19.93-19.93-.37-.15h-20.81l-.37,.15-19.92,19.94v-42.46c0-16.77,13.77-30.41,30.7-30.41s30.7,13.64,30.7,30.41v42.46h0ZM54.54,90.04c4.35,3.39,8.93,6.18,13.61,8.3l15.15-25.26h0l-15.69,26.14c-4.62-2.1-9.13-4.83-13.42-8.15l.34-1.03h0Z"/></g></symbol><symbol id="Neues_Symbol" viewBox="0 0 208 185.05"><g><path id="Hausputz" class="cls-relativeFamilarSize-3" d="M44.67,104.38l-20.03-17.52V23.64C24.64,11.71,34.34,2,46.27,2h114.48c11.93,0,21.64,9.71,21.64,21.64v63.23l-78.39,69.42-59.33-51.91Zm35.09-13.79c0,2.32,.89,4.5,2.52,6.13s3.82,2.54,6.15,2.54h30.58c4.78,0,8.67-3.89,8.67-8.67v-30.7c-.07-4.72-3.93-8.54-8.67-8.54h-30.57c-4.78,0-8.67,3.89-8.67,8.67v30.57h-.01Z"/><path id="Hausdach-und-Kontur" class="cls-relativeFamilarSize-4" d="M88.43,51.35h30.57c4.74,0,8.6,3.82,8.67,8.54v30.7c0,4.78-3.89,8.67-8.67,8.67h-30.58c-2.33,0-4.51-.9-6.15-2.54s-2.53-3.81-2.52-6.13v-30.57c0-4.78,3.89-8.67,8.67-8.67h.01Zm-6.67,39.24c0,1.79,.68,3.46,1.94,4.72s2.94,1.96,4.73,1.96h30.58c3.68,0,6.67-2.99,6.67-6.67v-30.58c0-3.68-2.99-6.67-6.67-6.67h-30.57c-3.68,0-6.67,2.99-6.67,6.67v30.57h-.01Zm121.98,11.33l-91.52,80.04c-2.28,1.99-5.2,3.09-8.22,3.09s-5.95-1.1-8.22-3.09L4.26,101.92c-3.84-3.37-4.26-7.69-4.26-9.39,0-9.09,8.35-12.16,12.16-12.16,3.35,0,6.12,.93,8.22,2.76l2.27,1.98V23.64C22.65,10.61,33.25,0,46.28,0h114.48c13.03,0,23.64,10.6,23.64,23.64v62.35l2.9-2.54c2.28-1.99,5.19-3.08,8.22-3.08,4.83,0,12.48,3.3,12.48,12.16,0,3.98-1.44,7.15-4.26,9.4h0Zm-99.08,56.45h0s-.09,.05-.13,.08h0s.09-.04,.13-.08Zm-.31,.18s.03-.02,.04-.02c-.07,.03-.13,.04-.2,.05h0c.05-.01,.11-.01,.16-.03Zm-.38,.06h.06c-.08,0-.15-.01-.23-.03,.05,.01,.11,.03,.16,.03h.01ZM182.4,23.64c0-11.93-9.71-21.64-21.64-21.64H46.28c-11.93,0-21.64,9.71-21.64,21.64v63.22l20.03,17.52,59.33,51.91,78.4-69.42V23.64h0Z"/></g></symbol></defs><rect id="Hintergrund" class="cls-relativeFamilarSize-2" y="0" width="708.66" height="283.46"/><rect id="Horizont" class="cls-relativeFamilarSize-5" y="162.86" width="708.66" height="2"/><use id="Haus" width="208" height="185.05" transform="translate(18.78 171.02) scale(.31 -.31)" xlink:href="#Neues_Symbol"/><g id="Katze-A"><use width="167.51" height="156.95" transform="translate(522.37 263.93) scale(1 -1)" xlink:href="#Katze"/><text class="cls-relativeFamilarSize-6" transform="translate(645.1 46.59)"><tspan x="0" y="0">A</tspan></text></g><g id="Katze-B"><use width="167.51" height="156.95" transform="translate(382.8 226.45) scale(.75 -.75)" xlink:href="#Katze"/><text class="cls-relativeFamilarSize-6" transform="translate(474.02 46.59)"><tspan x="0" y="0">B</tspan></text></g><g id="Katze-C"><use width="167.51" height="156.95" transform="translate(264.57 207.45) scale(.62 -.62)" xlink:href="#Katze"/><text class="cls-relativeFamilarSize-6" transform="translate(337.32 46.59)"><tspan x="0" y="0">C</tspan></text></g><g id="Katze-D"><use width="167.51" height="156.95" transform="translate(170.72 189.28) scale(.48 -.48)" xlink:href="#Katze"/><text class="cls-relativeFamilarSize-6" transform="translate(222.72 46.59)"><tspan x="0" y="0">D</tspan></text></g><g id="Katze-E"><use width="167.51" height="156.95" transform="translate(96.36 171.02) scale(.36 -.36)" xlink:href="#Katze"/><text class="cls-relativeFamilarSize-6" transform="translate(134.91 46.59)"><tspan x="0" y="0">E</tspan></text></g></svg>