<?xml version="1.0" encoding="UTF-8"?><svg id="relative-hoehe" xmlns="http://www.w3.org/2000/svg" xmlns:xlink="http://www.w3.org/1999/xlink" viewBox="0 0 651.97 396.85"><defs><style>.cls-1{fill:#e9c593;}.cls-2{fill:#fff;}.cls-3{fill:#a9bddf;}.cls-4{fill:#101e4e;}.cls-5{fill:#2e4a7a;}.cls-6{font-family:LucidaGrande, 'Lucida Grande';font-size:36px;}</style><symbol id="Berge" viewBox="0 0 651.97 137.67"><g><polygon id="Berge-2" class="cls-3" points="651.97 2.2 507.53 68.19 506.72 68.21 477.12 55.99 352.55 123.36 351.61 123.37 240.3 65.32 211.04 80.57 210.11 80.56 132.58 38.8 0 63.2 0 135.67 651.97 135.67 651.97 2.2"/><rect id="Horizont" class="cls-4" x="0" y="135.67" width="651.97" height="2"/><polygon id="Bergkamm" class="cls-4" points="210.11 80.56 211.04 80.57 240.3 65.32 351.61 123.37 352.55 123.36 477.12 55.99 506.72 68.21 507.53 68.19 651.97 2.2 651.97 0 507.08 66.19 477.44 53.96 476.59 54 352.06 121.35 240.77 63.31 239.84 63.31 210.59 78.55 133.22 36.87 132.56 36.77 0 61.16 0 63.2 132.58 38.8 210.11 80.56"/></g></symbol><symbol id="Katze" viewBox="0 0 167.51 156.95"><g><path id="Katzenkoerper" class="cls-1" d="M146.18,21.69h-20.81l-.37-.15L105.08,1.61V44.07c0,16.77,13.77,30.41,30.7,30.41s30.7-13.64,30.7-30.41V1.61l-19.93,19.93-.37,.15Zm-17.69,20.29c0,.74-.15,1.45-.41,2.11-.83,2.15-2.87,3.61-5.31,3.61-3.15,0-5.72-2.57-5.72-5.72s2.57-5.72,5.72-5.72,5.4,2.21,5.69,5.13c0,.05,0,.1,0,.14,.01,.14,.02,.27,.02,.41,0,0,0,.01,0,.02,0,0,0,.01,0,.02Zm25.98-.59s0,.1,0,.14c.01,.14,.02,.27,.02,.41,0,0,0,.01,0,.02,0,0,0,.01,0,.02,0,.74-.15,1.44-.4,2.09-.83,2.16-2.87,3.63-5.32,3.63-3.15,0-5.72-2.57-5.72-5.72s2.57-5.72,5.72-5.72,5.4,2.21,5.69,5.13Zm-70.2,42.21v-29.83c4.83-.79,8.65-.86,10.31-.86,4.14,19.32,21.4,33.29,41.19,33.29,3.07,0,6.23-.42,9.89-1.32v66.35c0,2.58-2.1,4.69-4.69,4.69h-10.4c-2.58,0-4.69-2.1-4.69-4.69v-46.82l-.83-.41-41.62,31.21,.31,.93h10.4c5.45,0,9.89,4.44,9.89,9.89v5.5c0,2.38-2.15,4.39-4.69,4.39H42.14c-11.19,0-20.29-9.1-20.29-20.29V52.39c0-6.02-4.9-10.92-10.92-10.92-5.45,0-9.89-4.44-9.89-9.89s4.44-9.89,9.89-9.89c16.93,0,30.7,13.77,30.7,30.7v31.53l22.21,11.1-9.28-28.12c4.35-3.39,8.93-6.18,13.61-8.3l15.15,25.26h0s.96,1.6,.96,1.6v-1.86Z"/><path id="Katzenaugen" class="cls-4" d="M128.49,41.95s0,.01,0,.02c0,0,0,.01,0,.02,0,.74-.15,1.45-.41,2.11-.83,2.15-2.87,3.61-5.31,3.61-3.15,0-5.72-2.57-5.72-5.72s2.57-5.72,5.72-5.72,5.4,2.21,5.69,5.13c0,.05,0,.1,0,.14,.01,.14,.02,.27,.02,.41Zm26.01,0c0-.14-.01-.27-.02-.41,0-.05,0-.1,0-.14-.29-2.92-2.69-5.13-5.69-5.13-3.15,0-5.72,2.57-5.72,5.72s2.57,5.72,5.72,5.72c2.44,0,4.49-1.47,5.32-3.63,.26-.65,.4-1.35,.4-2.09,0,0,0-.01,0-.02,0,0,0-.01,0-.02Z"/><path id="Katzenfell" class="cls-4" d="M54.54,66.91l9.28,28.12-22.21-11.1v-3.73l.09-.13c.31-.47,.63-.93,.95-1.39,3.04-4.36,6.54-8.32,10.94-12.33l.59-.54,.02,.07,.34,1.03Zm29.14-14.09h-.01s0,0,0,0c-5.37,.91-10.58,2.47-15.5,4.65,0,0,0,0-.01,0l-.12,.05-.42,.18h0s15.69,26.15,15.69,26.15l.96,1.6V52.73h0s-.59,.1-.59,.1Z"/><path id="Katzenkontur" class="cls-4" d="M146.06,83.72l.64,.5v67.01c0,3.15-2.57,5.72-5.72,5.72h-10.4c-3.15,0-5.72-2.57-5.72-5.72v-45.79l-39.55,29.66h8.85c6.02,0,10.92,4.9,10.92,10.92v5.5c0,2.94-2.62,5.43-5.72,5.43H42.14c-11.76,0-21.33-9.57-21.33-21.33V52.39c0-5.45-4.44-9.89-9.89-9.89-6.02,0-10.92-4.9-10.92-10.92s4.9-10.92,10.92-10.92c17.5,0,31.73,14.23,31.73,31.73v26.29c-.32,.46-.64,.92-.95,1.39l-.09,.13v-27.81c0-16.93-13.77-30.7-30.7-30.7-5.45,0-9.89,4.44-9.89,9.89s4.44,9.89,9.89,9.89c6.02,0,10.92,4.9,10.92,10.92v83.24c0,11.19,9.1,20.29,20.29,20.29h57.23c2.54,0,4.69-2.01,4.69-4.39v-5.5c0-5.45-4.44-9.89-9.89-9.89h-10.4l-.31-.93,41.62-31.21,.83,.41v46.82c0,2.58,2.1,4.69,4.69,4.69h10.4c2.58,0,4.69-2.1,4.69-4.69V84.88c-3.66,.9-6.82,1.32-9.89,1.32-19.8,0-37.05-13.98-41.19-33.29-1.67,0-5.48,.08-10.31,.86v-1.04c5.3-.85,9.37-.85,10.73-.85l.51,.41c3.88,19.05,20.82,32.88,40.27,32.88,3.16,0,6.42-.46,10.28-1.45ZM167.51,.37V44.07c0,17.33-14.23,31.44-31.73,31.44s-31.73-14.1-31.73-31.44V.37l.88-.37,20.66,20.66h20.38L166.63,0l.88,.37Zm-1.03,1.25l-19.93,19.93-.37,.15h-20.81l-.37-.15L105.08,1.61V44.07c0,16.77,13.77,30.41,30.7,30.41s30.7-13.64,30.7-30.41V1.61ZM54.54,66.91c4.35-3.39,8.93-6.18,13.61-8.3l15.15,25.26h0s-15.69-26.14-15.69-26.14c-4.62,2.1-9.13,4.83-13.42,8.15l.34,1.03Z"/></g></symbol><symbol id="Ufo" viewBox="0 0 70.87 43.02"><g><path id="Ufo-Lichter" class="cls-4" d="M66.49,22.04c-2.8-2.02-6.56-3.65-11.24-4.89,.1,.82,.16,1.65,.16,2.51v.23l-.83,.69c-.49,.48-1.26,.99-2.38,1.57-1.08,.56-2.34,1.12-3.76,1.68-1.43,.56-3.33,1.04-5.64,1.41-2.3,.37-4.79,.56-7.39,.56s-5.09-.21-7.4-.62c-2.3-.41-4.17-.86-5.56-1.35-1.39-.49-2.69-1.08-3.85-1.76-1.17-.68-1.92-1.15-2.27-1.42s-.61-.49-.77-.65l-.15-.15v-.21c0-.85,.05-1.68,.16-2.5-4.68,1.24-8.43,2.86-11.23,4.89C1.46,24.14,0,26.41,0,28.85c0,2.58,1.59,4.96,4.76,7.14,3.17,2.18,7.47,3.89,12.9,5.15,5.43,1.25,11.35,1.88,17.77,1.88s12.35-.63,17.77-1.88c5.43-1.25,9.73-2.97,12.9-5.15,3.17-2.18,4.76-4.56,4.76-7.14,0-2.44-1.46-4.71-4.37-6.81ZM16.06,31.61c-.52,.52-1.14,.78-1.88,.78s-1.37-.26-1.88-.78-.78-1.14-.78-1.88,.26-1.37,.78-1.88,1.14-.78,1.88-.78,1.37,.26,1.88,.78,.78,1.14,.78,1.88-.26,1.37-.78,1.88Zm21.26,5.31c-.52,.52-1.14,.78-1.88,.78s-1.37-.26-1.88-.78-.78-1.14-.78-1.88,.26-1.37,.78-1.88,1.14-.78,1.88-.78,1.37,.26,1.88,.78,.78,1.14,.78,1.88-.26,1.37-.78,1.88Zm21.26-5.31c-.52,.52-1.14,.78-1.88,.78s-1.37-.26-1.88-.78-.78-1.14-.78-1.88,.26-1.37,.78-1.88,1.14-.78,1.88-.78,1.37,.26,1.88,.78,.78,1.14,.78,1.88-.26,1.37-.78,1.88Z"/><path id="Ufo-Glas" class="cls-3" d="M19.13,21.22c1.11,.65,2.35,1.21,3.68,1.68,1.33,.47,3.15,.91,5.4,1.31,2.25,.4,4.68,.6,7.22,.6s4.98-.18,7.23-.55c2.24-.36,4.07-.82,5.43-1.36,1.38-.55,2.61-1.1,3.66-1.64,1.02-.53,1.74-1,2.15-1.4l.03-.03,.48-.4c-.06-5.05-1.92-9.42-5.55-12.97-3.69-3.62-8.21-5.45-13.44-5.45-3.44,0-6.65,.83-9.55,2.48-2.9,1.65-5.22,3.93-6.9,6.79-1.65,2.8-2.5,5.88-2.53,9.16,.13,.12,.31,.26,.53,.43,.31,.24,1.04,.7,2.16,1.35Z"/><path id="Ufo-Kontur" class="cls-5" d="M15.44,19.86l.15,.15c.16,.16,.41,.38,.77,.65s1.1,.74,2.27,1.42c1.16,.68,2.46,1.27,3.85,1.76,1.39,.49,3.26,.94,5.56,1.35,2.31,.41,4.79,.62,7.4,.62s5.08-.19,7.39-.56c2.31-.37,4.21-.85,5.64-1.41,1.41-.56,2.68-1.12,3.76-1.68,1.11-.58,1.89-1.09,2.38-1.57l.83-.69v-.23c0-.86-.07-1.69-.16-2.51-.52-4.37-2.42-8.21-5.69-11.41-3.88-3.81-8.64-5.73-14.14-5.73-3.62,0-6.99,.88-10.05,2.61-3.05,1.73-5.5,4.14-7.27,7.16-1.35,2.29-2.19,4.77-2.51,7.38-.1,.82-.16,1.66-.16,2.5v.21Zm3.53-9.59c1.68-2.86,4-5.15,6.9-6.79,2.9-1.65,6.11-2.48,9.55-2.48,5.23,0,9.75,1.83,13.44,5.45,3.63,3.56,5.5,7.92,5.55,12.97l-.48,.4-.03,.03c-.41,.41-1.13,.88-2.15,1.4-1.05,.54-2.28,1.09-3.66,1.64-1.36,.54-3.19,.99-5.43,1.36-2.25,.36-4.68,.55-7.23,.55s-4.97-.2-7.22-.6c-2.25-.4-4.07-.84-5.4-1.31-1.33-.47-2.57-1.03-3.68-1.68-1.12-.65-1.85-1.1-2.16-1.35-.22-.17-.39-.31-.53-.43,.04-3.28,.89-6.37,2.53-9.16Z"/></g></symbol></defs><rect id="Hintergrund" class="cls-2" width="651.97" height="396.85"/><use width="651.97" height="137.67" transform="translate(0 79.79)" xlink:href="#Berge"/><use width="70.87" height="43.02" transform="translate(295.9 121.77)" xlink:href="#Ufo"/><use width="167.51" height="156.95" transform="translate(179.14 257.79) scale(.81)" xlink:href="#Katze"/><use width="167.51" height="156.95" transform="translate(384.6 184.43) scale(.81)" xlink:href="#Katze"/><use width="70.87" height="43.02" transform="translate(139.71 12.18)" xlink:href="#Ufo"/><text class="cls-6" transform="translate(323.25 384.51)"><tspan x="0" y="0">A</tspan></text><text class="cls-6" transform="translate(376.03 148.17)"><tspan x="0" y="0">C</tspan></text><text class="cls-6" transform="translate(219.66 38.59)"><tspan x="0" y="0">D</tspan></text><text class="cls-6" transform="translate(528.6 311.99)"><tspan x="0" y="0">B</tspan></text></svg>