<?xml version="1.0" encoding="UTF-8"?><svg id="atmosphere-perspective" xmlns="http://www.w3.org/2000/svg" xmlns:xlink="http://www.w3.org/1999/xlink" viewBox="0 0 651.97 396.85"><defs><style>.cls-1{fill:#e9c593;}.cls-2{fill:#fff;}.cls-3{fill:#a9bddf;}.cls-4{fill:#101e4e;}.cls-5{fill:#4b5669;}</style><symbol id="Berge" viewBox="0 0 651.97 137.67"><g><polygon id="Berge-2" class="cls-3" points="651.97 2.2 507.53 68.19 506.72 68.21 477.12 55.99 352.55 123.36 351.61 123.37 240.3 65.32 211.04 80.57 210.11 80.56 132.58 38.8 0 63.2 0 135.67 651.97 135.67 651.97 2.2"/><rect id="Horizont" class="cls-4" x="0" y="135.67" width="651.97" height="2"/><polygon id="Bergkamm" class="cls-4" points="210.11 80.56 211.04 80.57 240.3 65.32 351.61 123.37 352.55 123.36 477.12 55.99 506.72 68.21 507.53 68.19 651.97 2.2 651.97 0 507.08 66.19 477.44 53.96 476.59 54 352.06 121.35 240.77 63.31 239.84 63.31 210.59 78.55 133.22 36.87 132.56 36.77 0 61.16 0 63.2 132.58 38.8 210.11 80.56"/></g></symbol><symbol id="Katze" viewBox="0 0 167.51 156.95"><g><path id="Katzenkoerper" class="cls-1" d="M146.18,21.69h-20.81l-.37-.15L105.08,1.61V44.07c0,16.77,13.77,30.41,30.7,30.41s30.7-13.64,30.7-30.41V1.61l-19.93,19.93-.37,.15Zm-17.69,20.29c0,.74-.15,1.45-.41,2.11-.83,2.15-2.87,3.61-5.31,3.61-3.15,0-5.72-2.57-5.72-5.72s2.57-5.72,5.72-5.72,5.4,2.21,5.69,5.13c0,.05,0,.1,0,.14,.01,.14,.02,.27,.02,.41,0,0,0,.01,0,.02,0,0,0,.01,0,.02Zm25.98-.59s0,.1,0,.14c.01,.14,.02,.27,.02,.41,0,0,0,.01,0,.02,0,0,0,.01,0,.02,0,.74-.15,1.44-.4,2.09-.83,2.16-2.87,3.63-5.32,3.63-3.15,0-5.72-2.57-5.72-5.72s2.57-5.72,5.72-5.72,5.4,2.21,5.69,5.13Zm-70.2,42.21v-29.83c4.83-.79,8.65-.86,10.31-.86,4.14,19.32,21.4,33.29,41.19,33.29,3.07,0,6.23-.42,9.89-1.32v66.35c0,2.58-2.1,4.69-4.69,4.69h-10.4c-2.58,0-4.69-2.1-4.69-4.69v-46.82l-.83-.41-41.62,31.21,.31,.93h10.4c5.45,0,9.89,4.44,9.89,9.89v5.5c0,2.38-2.15,4.39-4.69,4.39H42.14c-11.19,0-20.29-9.1-20.29-20.29V52.39c0-6.02-4.9-10.92-10.92-10.92-5.45,0-9.89-4.44-9.89-9.89s4.44-9.89,9.89-9.89c16.93,0,30.7,13.77,30.7,30.7v31.53l22.21,11.1-9.28-28.12c4.35-3.39,8.93-6.18,13.61-8.3l15.15,25.26h0s.96,1.6,.96,1.6v-1.86Z"/><path id="Katzenaugen" class="cls-4" d="M128.49,41.95s0,.01,0,.02c0,0,0,.01,0,.02,0,.74-.15,1.45-.41,2.11-.83,2.15-2.87,3.61-5.31,3.61-3.15,0-5.72-2.57-5.72-5.72s2.57-5.72,5.72-5.72,5.4,2.21,5.69,5.13c0,.05,0,.1,0,.14,.01,.14,.02,.27,.02,.41Zm26.01,0c0-.14-.01-.27-.02-.41,0-.05,0-.1,0-.14-.29-2.92-2.69-5.13-5.69-5.13-3.15,0-5.72,2.57-5.72,5.72s2.57,5.72,5.72,5.72c2.44,0,4.49-1.47,5.32-3.63,.26-.65,.4-1.35,.4-2.09,0,0,0-.01,0-.02,0,0,0-.01,0-.02Z"/><path id="Katzenfell" class="cls-4" d="M54.54,66.91l9.28,28.12-22.21-11.1v-3.73l.09-.13c.31-.47,.63-.93,.95-1.39,3.04-4.36,6.54-8.32,10.94-12.33l.59-.54,.02,.07,.34,1.03Zm29.14-14.09h-.01s0,0,0,0c-5.37,.91-10.58,2.47-15.5,4.65,0,0,0,0-.01,0l-.12,.05-.42,.18h0s15.69,26.15,15.69,26.15l.96,1.6V52.73h0s-.59,.1-.59,.1Z"/><path id="Katzenkontur" class="cls-4" d="M146.06,83.72l.64,.5v67.01c0,3.15-2.57,5.72-5.72,5.72h-10.4c-3.15,0-5.72-2.57-5.72-5.72v-45.79l-39.55,29.66h8.85c6.02,0,10.92,4.9,10.92,10.92v5.5c0,2.94-2.62,5.43-5.72,5.43H42.14c-11.76,0-21.33-9.57-21.33-21.33V52.39c0-5.45-4.44-9.89-9.89-9.89-6.02,0-10.92-4.9-10.92-10.92s4.9-10.92,10.92-10.92c17.5,0,31.73,14.23,31.73,31.73v26.29c-.32,.46-.64,.92-.95,1.39l-.09,.13v-27.81c0-16.93-13.77-30.7-30.7-30.7-5.45,0-9.89,4.44-9.89,9.89s4.44,9.89,9.89,9.89c6.02,0,10.92,4.9,10.92,10.92v83.24c0,11.19,9.1,20.29,20.29,20.29h57.23c2.54,0,4.69-2.01,4.69-4.39v-5.5c0-5.45-4.44-9.89-9.89-9.89h-10.4l-.31-.93,41.62-31.21,.83,.41v46.82c0,2.58,2.1,4.69,4.69,4.69h10.4c2.58,0,4.69-2.1,4.69-4.69V84.88c-3.66,.9-6.82,1.32-9.89,1.32-19.8,0-37.05-13.98-41.19-33.29-1.67,0-5.48,.08-10.31,.86v-1.04c5.3-.85,9.37-.85,10.73-.85l.51,.41c3.88,19.05,20.82,32.88,40.27,32.88,3.16,0,6.42-.46,10.28-1.45ZM167.51,.37V44.07c0,17.33-14.23,31.44-31.73,31.44s-31.73-14.1-31.73-31.44V.37l.88-.37,20.66,20.66h20.38L166.63,0l.88,.37Zm-1.03,1.25l-19.93,19.93-.37,.15h-20.81l-.37-.15L105.08,1.61V44.07c0,16.77,13.77,30.41,30.7,30.41s30.7-13.64,30.7-30.41V1.61ZM54.54,66.91c4.35-3.39,8.93-6.18,13.61-8.3l15.15,25.26h0s-15.69-26.14-15.69-26.14c-4.62,2.1-9.13,4.83-13.42,8.15l.34,1.03Z"/></g></symbol></defs><rect id="Hintergrund" class="cls-2" x="0" width="651.97" height="396.85"/><rect id="Horizont-2" class="cls-4" x="103.82" y="203.13" width="444.14" height=".05"/><path id="Schwellen" class="cls-5" d="M501.8,348.44H150.42l22.81-19.46H479.03l22.77,19.46Zm56.62,48.41l-464.76-.03,11.35-9.69h442.09s11.32,9.72,11.32,9.72Zm-115.31-98.57H209.23l-12.05,10.28H455.13l-12.03-10.28Zm-22.36-19.1H231.63l-7.47,6.37h204.04l-7.45-6.37Zm-15.04-12.85H246.7l-5.02,4.28h169.05l-5.01-4.28Zm-11.03-9.42h-136.93l-3.68,3.14h144.29l-3.68-3.14Zm-8.28-7.07h-120.36l-2.77,2.36h125.89l-2.76-2.36Zm-6.5-5.56h-107.34l-2.17,1.85h111.68l-2.16-1.85Zm-5.24-4.48h-96.86l-1.75,1.49h100.35l-1.75-1.49Zm-4.3-3.68h-88.24l-1.43,1.22h91.1l-1.43-1.22Zm-3.6-3.08h-81.03l-1.21,1.03h83.45l-1.21-1.03Zm-3.06-2.61h-74.91l-1.01,.86h76.93l-1.01-.86Zm-2.63-2.25h-69.65l-.88,.75h71.41l-.88-.75Zm-2.29-1.96h-65.06l-.77,.66h66.6l-.77-.66Zm-2.01-1.72h-61.04l-.67,.57h62.37l-.66-.57Zm-1.76-1.5h-57.52l-.59,.5h58.7l-.59-.5Zm-1.57-1.34h-54.38l-.52,.45h55.43l-.52-.45Zm-1.42-1.21h-51.55l-.47,.4h52.49l-.47-.4Zm-1.28-1.09h-48.99l-.42,.36h49.83l-.42-.36Zm-1.15-.99h-46.68l-.39,.33h47.46l-.38-.33Zm-1.05-.9h-44.57l-.36,.31h45.29l-.36-.31Zm-.96-.82h-42.66l-.32,.27h43.3l-.32-.27Zm-.89-.76h-40.89l-.3,.25h41.48l-.3-.25Zm-.81-.69h-39.27l-.27,.23h39.81l-.27-.23Zm-.75-.64h-37.77l-.25,.21h38.27l-.25-.21Zm-.7-.6h-36.37l-.23,.2h36.84l-.23-.2Zm-.64-.55h-35.09l-.21,.18h35.52l-.21-.18Zm-.6-.51h-33.89l-.2,.17h34.29l-.2-.17Zm-.56-.48h-32.77l-.19,.16h33.14l-.19-.16Zm-.53-.45h-31.72l-.18,.15h32.07l-.17-.15Zm-.49-.42h-30.73l-.16,.14h31.06l-.16-.14Zm-.46-.39h-29.81l-.15,.13h30.12l-.15-.13Zm-.44-.37h-28.94l-.15,.12h29.23l-.15-.12Zm-.41-.35h-28.11l-.14,.12h28.39l-.14-.12Zm-.39-.33h-27.34l-.13,.11h27.6l-.13-.11Zm-.37-.32h-26.6l-.12,.1h26.84l-.12-.1Zm-.35-.3h-25.91l-.12,.1h26.14l-.11-.1Zm-.33-.29h-25.24l-.11,.09h25.46l-.11-.09Zm-.32-.27h-24.6l-.11,.09h24.81l-.1-.09Zm-.29-.25h-24.02l-.1,.08h24.21l-.1-.08Zm-.29-.25h-23.44l-.1,.08h23.63l-.1-.08Zm-.27-.23h-22.9l-.09,.08h23.08l-.09-.08Zm-.26-.22h-22.38l-.09,.07h22.55l-.09-.07Zm-.25-.22h-21.88l-.08,.07h22.04l-.08-.07Zm-.24-.2h-21.4l-.08,.07h21.56l-.08-.07Zm-.22-.19h-20.96l-.08,.06h21.11l-.08-.06Zm-.22-.18h-20.52l-.07,.06h20.67l-.07-.06Zm-.21-.18h-20.1l-.07,.06h20.24l-.07-.06Zm-.2-.17h-19.7l-.07,.06h19.84l-.07-.06Zm-.19-.16h-19.32l-.06,.05h19.45l-.06-.05Zm-.18-.16h-18.95l-.06,.05h19.07l-.06-.05Zm-.18-.16h-18.58l-.06,.05h18.7l-.06-.05Zm-.17-.14h-18.25l-.06,.05h18.36l-.06-.05Zm-.17-.14h-17.91l-.06,.05h18.02l-.06-.05Zm-.16-.13h-17.6l-.05,.04h17.7l-.05-.04Zm-.16-.13h-17.28l-.05,.04h17.39l-.05-.04Zm-.15-.13h-16.98l-.05,.04h17.08l-.05-.04Zm-.14-.12h-16.7l-.05,.04h16.8l-.05-.04Zm-.14-.12h-16.42l-.05,.04h16.51l-.05-.04Zm-.13-.11h-16.15l-.04,.04h16.24l-.04-.04Zm-.13-.11h-15.9l-.04,.04h15.98l-.04-.04Zm-.13-.11h-15.64l-.04,.03h15.72l-.04-.03Zm-.12-.1h-15.4l-.04,.03h15.48l-.04-.03Zm-.12-.1h-15.16l-.04,.03h15.23l-.04-.03Zm-.11-.1h-14.93l-.04,.03h15l-.04-.03Zm-.22-.19h-14.49l-.04,.03h14.56l-.04-.03Zm-.1-.09h-14.28l-.03,.03h14.35l-.03-.03Zm-.11-.09h-14.07l-.03,.03h14.14l-.03-.03Zm-.1-.08h-13.88l-.03,.03h13.94l-.03-.03Zm-.1-.08h-13.69l-.03,.03h13.75l-.03-.03Zm-.1-.08h-13.49l-.03,.03h13.55l-.03-.03Zm.61,.52h-14.71l-.04,.03h14.78l-.04-.03Zm-.7-.6h-13.31l-.03,.03h13.37l-.03-.03Zm-.09-.08h-13.13l-.03,.03h13.19l-.03-.03Zm-.09-.07h-12.96l-.03,.02h13.01l-.03-.02Zm-.08-.07h-12.8l-.03,.02h12.85l-.03-.02Zm-.08-.07h-12.63l-.03,.02h12.68l-.03-.02Zm-.08-.07h-12.47l-.03,.02h12.52l-.03-.02Zm-.08-.07h-12.31l-.03,.02h12.36l-.03-.02Zm-.07-.06h-12.16l-.02,.02h12.21l-.02-.02Zm-.07-.06h-12.02l-.02,.02h12.06l-.02-.02Zm-.07-.06h-11.87l-.02,.02h11.91l-.02-.02Zm-.07-.06h-11.73l-.02,.02h11.77l-.02-.02Zm-.07-.06h-11.59l-.02,.02h11.63l-.02-.02Zm-.07-.06h-11.45l-.02,.02h11.5l-.02-.02Zm-.06-.05h-11.32l-.02,.02h11.37l-.02-.02Zm-.06-.05h-11.19l-.02,.02h11.24l-.02-.02Zm-.04-.04l-.02-.02h-11.07l-.02,.02h11.11Z"/><path id="Schienen" class="cls-4" d="M331.83,203.19s-5.05-4.31-5.05-4.31l6,4.31,241.85,193.66h-16.19c-74.87-63.98-151.85-129.77-226.61-193.66ZM93.65,396.85l227.09-193.66,5.05-4.31-6,4.28L77.46,396.85h16.19Z"/><use width="651.97" height="137.67" transform="translate(0 65.49)" xlink:href="#Berge"/><use width="167.51" height="156.95" transform="translate(247.59 327.93) scale(.47 .44)" xlink:href="#Katze"/><use width="167.51" height="156.95" transform="translate(345.24 284.58) scale(.32)" xlink:href="#Katze"/><use width="167.51" height="156.95" transform="translate(285 263.42) scale(.24)" xlink:href="#Katze"/></svg>