<?xml version="1.0" encoding="utf-8"?>
<!-- Generator: Adobe Illustrator 26.4.1, SVG Export Plug-In . SVG Version: 6.00 Build 0)  -->
<svg version="1.1" id="verdecken" xmlns="http://www.w3.org/2000/svg" xmlns:xlink="http://www.w3.org/1999/xlink" x="0px" y="0px"
	 viewBox="0 0 657.6 368.5" style="enable-background:new 0 0 657.6 368.5;" xml:space="preserve">
<style type="text/css">
	.st0{fill:#A9BDDF;}
	.st1{fill:#2E4A7A;}
	.st2{fill:#AABDDF;}
	.st3{fill:#788FB7;}
	.st4{fill:#101E4E;}
	.st5{fill:#CCD7EC;}
	.st6{fill:#FFFFFF;}
	.st7{font-family:'LucidaGrande';}
	.st8{font-size:36px;}
</style>
<symbol  id="Baum" viewBox="-82 -94.5 164.1 189.1">
	<g>
		<path id="Baum-innen_00000050641584332829807310000006891937583122926504_" class="st0" d="M77.4,75L45.1,37.7
			c-0.7-0.8-0.8-1.9-0.4-2.8s1.3-1.5,2.4-1.5h11.7c3.6,0,6.8-2,8.3-5.2c1.5-3.2,1-6.7-1.3-9.4L31.6-21.4c-0.7-0.8-0.8-1.8-0.4-2.8
			c0.4-0.9,1.3-1.5,2.4-1.5h15.3c3.7,0,5.9-2.1,6.8-4.1c1-2.2,0.6-4.5-1.1-6.3L6.3-90.2c-1.4-1.5-3.4-2.4-5.6-2.4
			c-0.2,0-0.3,0-0.4,0H0.1c0,0-0.1,0-0.1,0s-0.1,0-0.1,0h-0.1c-0.2,0-0.3,0-0.4,0c-2.2,0-4.2,0.9-5.6,2.4L-54.5-36
			c-1.7,1.8-2.1,4.1-1.1,6.3c0.9,2,3.1,4.1,6.8,4.1h15.3c1,0,1.9,0.6,2.3,1.5c0.4,0.9,0.3,2-0.4,2.8l-34.2,40.2
			c-2.3,2.7-2.7,6.2-1.3,9.4c1.5,3.2,4.7,5.2,8.3,5.2H-47c1,0,1.9,0.6,2.3,1.5s0.3,2-0.4,2.8L-77.4,75c-2.8,3.2-3.4,7.6-1.6,11.5
			c1.7,3.8,5.2,6.1,9.3,6.1H69.8c4.1,0,7.5-2.3,9.3-6.1C80.8,82.6,80.2,78.2,77.4,75L77.4,75z"/>
		<path id="Baumkontur_00000148656410081779520540000006900575516359059082_" class="st1" d="M78.9,73.7L46.6,36.4
			c-0.3-0.4-0.1-1,0.4-1h11.7c9.5,0,14.6-10.8,8.6-17.9L33.1-22.7c-0.3-0.4-0.1-1,0.4-1h15.3c7.9,0,12.1-8.3,7.1-13.8L7.8-91.5
			c-1.8-2-4.5-3.1-7.1-3.1c-0.2,0-0.4,0-0.7,0c-0.2,0-0.4,0-0.7,0c-2.6,0-5.3,1-7.1,3.1L-56-37.4c-5,5.5-0.7,13.8,7.2,13.8h15.3
			c0.5,0,0.8,0.6,0.5,1l-34.2,40.2c-6,7.1-0.9,17.9,8.6,17.9H-47c0.5,0,0.8,0.6,0.4,1l-32.4,37.3c-6.9,8-1.4,20.8,9.2,20.8H69.8
			C80.3,94.5,85.9,81.8,78.9,73.7L78.9,73.7z M69.8,92.5H-69.8c-4.1,0-7.5-2.3-9.3-6.1c-1.8-3.9-1.2-8.3,1.6-11.5l32.4-37.3
			c0.7-0.8,0.8-1.9,0.4-2.8s-1.3-1.5-2.3-1.5h-11.7c-3.6,0-6.8-2-8.3-5.2c-1.5-3.2-1-6.7,1.3-9.4l34.2-40.2c0.7-0.8,0.8-1.8,0.4-2.8
			s-1.3-1.5-2.3-1.5h-15.3c-3.7,0-5.9-2.1-6.8-4.1c-1-2.2-0.5-4.5,1.1-6.3l48.2-54.1c1.4-1.5,3.4-2.4,5.6-2.4c0.2,0,0.3,0,0.4,0h0.1
			c0,0,0.1,0,0.1,0s0.1,0,0.1,0h0.1c0.2,0,0.3,0,0.4,0c2.2,0,4.2,0.9,5.6,2.4L54.5-36c1.7,1.8,2.1,4.1,1.1,6.3
			c-0.9,2-3.1,4.1-6.8,4.1H33.5c-1,0-1.9,0.6-2.4,1.5c-0.4,0.9-0.3,2,0.4,2.8l34.2,40.2c2.3,2.7,2.8,6.2,1.3,9.4
			c-1.5,3.2-4.7,5.2-8.3,5.2H47c-1,0-1.9,0.6-2.3,1.5s-0.3,2,0.4,2.8L77.4,75c2.8,3.2,3.4,7.6,1.6,11.5
			C77.3,90.3,73.8,92.6,69.8,92.5L69.8,92.5z"/>
	</g>
</symbol>
<symbol  id="baum-hinter-haus" viewBox="-82 -94.5 164 189.1">
	<path id="Bauminnen_00000157304785964369911740000008536802934011192460_" class="st0" d="M77.4-75L45.1-37.7
		c-0.7,0.8-0.8,1.9-0.4,2.8c0.4,0.9,1.3,1.5,2.4,1.5h11.7c3.6,0,6.8,2,8.3,5.2c1.5,3.2,1,6.7-1.3,9.4L31.6,21.4
		c-0.6,0.8-0.8,1.9-0.4,2.8c0.4,0.9,1.3,1.5,2.4,1.5h15.3c3.7,0,5.9,2.1,6.8,4.1c1,2.2,0.6,4.5-1.1,6.3L6.3,90.2
		c-1.4,1.5-3.4,2.4-5.6,2.4c-0.1,0-0.3,0-0.4,0H0.1l-0.1,0h-0.1l-0.1,0c-0.1,0-0.3,0-0.4,0c-2.2,0-4.2-0.9-5.6-2.4l-48.2-54.1
		c-1.7-1.9-2.1-4.1-1.1-6.3c0.9-2,3.1-4.1,6.8-4.1h15.3c1,0,1.9-0.6,2.4-1.5c0.4-0.9,0.3-2-0.4-2.8l-34.2-40.2
		c-2.3-2.7-2.7-6.2-1.3-9.4c1.5-3.2,4.7-5.2,8.3-5.2h11.7c1,0,1.9-0.6,2.3-1.5s0.3-2-0.4-2.8L-77.5-75c-2.8-3.2-3.4-7.6-1.6-11.5
		c1.7-3.8,5.2-6,9.3-6H69.8c4.1,0,7.5,2.3,9.3,6C80.8-82.6,80.2-78.2,77.4-75"/>
	<path id="Baumkontur-2_00000005989327776903529630000004902103744217231537_" class="st1" d="M78.9-73.7L46.6-36.4
		c-0.3,0.4-0.1,1,0.4,1h11.7c9.5,0,14.6,10.8,8.6,17.9L33.1,22.7c-0.3,0.4-0.1,1,0.4,1h15.3c7.9,0,12.1,8.3,7.1,13.8L7.8,91.5
		c-1.9,2-4.5,3.1-7.1,3.1c-0.2,0-0.4,0-0.7,0c-0.2,0-0.4,0-0.7,0c-2.6,0-5.3-1-7.1-3.1L-56,37.4c-5-5.4-0.7-13.8,7.2-13.8h15.3
		c0.5,0,0.8-0.6,0.4-1l-34.2-40.2c-6-7.1-0.9-17.9,8.6-17.9H-47c0.5,0,0.8-0.6,0.4-1l-32.3-37.3c-6.9-8-1.4-20.8,9.2-20.8H69.8
		C80.3-94.5,85.9-81.8,78.9-73.7 M69.8-92.5H-69.8c-4.1,0-7.5,2.3-9.3,6c-1.8,3.9-1.2,8.3,1.6,11.5l32.4,37.3
		c0.7,0.8,0.8,1.9,0.4,2.8c-0.4,0.9-1.3,1.5-2.3,1.5h-11.7c-3.6,0-6.8,2-8.3,5.2c-1.5,3.2-1,6.7,1.3,9.4l34.2,40.2
		c0.6,0.8,0.8,1.9,0.4,2.8c-0.4,0.9-1.3,1.5-2.4,1.5h-15.3c-3.7,0-5.9,2.1-6.8,4.1c-1,2.2-0.6,4.5,1.1,6.3l48.2,54.1
		c1.4,1.5,3.4,2.4,5.6,2.4c0.1,0,0.3,0,0.4,0h0.1l0.1,0h0.1l0.1,0c0.1,0,0.3,0,0.4,0c2.2,0,4.2-0.9,5.6-2.4L54.5,36
		c1.7-1.8,2.1-4.1,1.1-6.3c-0.9-2-3.1-4.1-6.8-4.1H33.5c-1,0-1.9-0.6-2.4-1.5c-0.4-0.9-0.3-2,0.4-2.8l34.2-40.2
		c2.3-2.7,2.8-6.2,1.3-9.4c-1.5-3.2-4.7-5.2-8.3-5.2H47c-1,0-1.9-0.6-2.4-1.5c-0.4-0.9-0.3-2,0.4-2.8L77.4-75
		c2.8-3.2,3.4-7.6,1.6-11.5C77.3-90.3,73.8-92.6,69.8-92.5"/>
	<path id="Bauminnen-hinter-Fenster_00000044174519496508069270000007070835544418542496_" class="st2" d="M-54-4.9l-11.8-13.9
		c-1.4-1.6-2.1-3.6-2.1-5.6c0-1.3,0.3-2.5,0.8-3.8c1.5-3.2,4.7-5.2,8.3-5.2h7.6v23.1C-51.1-8-52.2-6.1-54-4.9"/>
	<path id="Baumkontur-hinter-Fenster_00000141438624597550487380000009354449816302140076_" class="st3" d="M-55.8-4.1l-11.5-13.5
		c-6-7.1-0.9-17.9,8.6-17.9h7.6v2h-7.6c-3.6,0-6.8,2-8.3,5.2c-0.6,1.2-0.8,2.5-0.8,3.8c0,2,0.7,4,2.1,5.6L-54-4.9
		C-54.5-4.6-55.2-4.3-55.8-4.1"/>
</symbol>
<symbol  id="haus" viewBox="-77.8 -84.2 155.5 168.4">
	<path id="Haus_00000096748667503237934250000009034539431782530712_" class="st4" d="M77.7,9.2c0,6-2.5,11.6-6.9,15.6L9.5,80.5
		C6.8,83,3.4,84.2,0,84.2s-6.8-1.2-9.5-3.7l-61.3-55.7c-4.4-4-6.9-9.7-6.9-15.7v-79.2c0-7.8,6.3-14.1,14.1-14.1H63.6
		c7.8,0,14.1,6.3,14.1,14.1L77.7,9.2L77.7,9.2z M19.4-25.9c0-3.6-2.9-6.5-6.5-6.5H-13c-3.6,0-6.5,2.9-6.5,6.5V0
		c0,3.6,2.9,6.5,6.5,6.5H13c3.6,0,6.5-2.9,6.5-6.5V-25.9z"/>
	<path id="Fenster_00000093884280654889174010000015940563858745532052_" class="st5" d="M13,6.5h-25.9c-3.6,0-6.5-2.9-6.5-6.5
		v-25.9c0-3.6,2.9-6.5,6.5-6.5H13c3.6,0,6.5,2.9,6.5,6.5v0.8h-7.6c-9.5,0-14.6,10.8-8.6,17.9L14.7,6.3C14.1,6.4,13.6,6.5,13,6.5"/>
</symbol>
<rect class="st6" width="657.6" height="368.5"/>
<use xlink:href="#baum-hinter-haus"  width="164" height="189.1" x="-82" y="-94.5" transform="matrix(1 0 0 -1 173.425 248.235)" style="overflow:visible;"/>
<use xlink:href="#haus"  width="155.5" height="168.4" id="XMLID_00000036247875658150536210000007528157484263021226_" x="-77.8" y="-84.2" transform="matrix(1 0 0 -1 102.88 258.56)" style="overflow:visible;"/>
<g id="Baum-C">
	
		<use xlink:href="#Baum"  width="164.1" height="189.1" x="-82" y="-94.5" transform="matrix(1 0 0 1 546.5967 205.3)" style="overflow:visible;"/>
	<text transform="matrix(1 0 0 1 538.02 46.59)" class="st7 st8">C</text>
</g>
<g id="Baum-B">
	
		<use xlink:href="#Baum"  width="164.1" height="189.1" x="-82" y="-94.5" transform="matrix(1 0 0 1 482.2466 226.77)" style="overflow:visible;"/>
	<text transform="matrix(1 0 0 1 475.77 46.59)" class="st7 st8">B</text>
</g>
<g id="Baum-A">
	
		<use xlink:href="#Baum"  width="164.1" height="189.1" x="-82" y="-94.5" transform="matrix(1 0 0 1 417.8966 248.24)" style="overflow:visible;"/>
	<text transform="matrix(1 0 0 1 409.35 46.59)" class="st7 st8">A</text>
</g>
</svg>
