<?xml version="1.0" encoding="UTF-8"?><svg id="verdecken" xmlns="http://www.w3.org/2000/svg" xmlns:xlink="http://www.w3.org/1999/xlink" viewBox="0 0 657.64 368.5"><defs><style>.cls-1{fill:#fff;}.cls-2{fill:#a9bddf;}.cls-3{fill:#101e4e;}.cls-4{fill:#2e4a7a;}.cls-5{font-family:LucidaGrande, 'Lucida Grande';font-size:36px;}</style><symbol id="Baum" viewBox="0 0 164.05 189.06"><g><path id="Baum-innen" class="cls-2" d="M159.46,169.55l-32.35-37.29c-.66-.76-.82-1.85-.4-2.77,.42-.92,1.34-1.51,2.35-1.51h11.68c3.64,0,6.83-2.01,8.33-5.24,1.48-3.18,1-6.69-1.27-9.38l-34.21-40.21c-.65-.76-.8-1.85-.38-2.76,.42-.91,1.34-1.5,2.35-1.5h15.26c3.68,0,5.92-2.12,6.8-4.1,.96-2.18,.55-4.48-1.12-6.3L88.32,4.38c-1.37-1.5-3.42-2.38-5.61-2.38-.15,0-.3,.01-.45,.02h-.1s-.09,.01-.13,.01-.09,0-.13,0h-.1c-.15-.02-.3-.03-.45-.03-2.2,0-4.25,.87-5.63,2.39L27.57,58.48c-1.69,1.85-2.1,4.14-1.14,6.32,.87,1.98,3.12,4.1,6.8,4.1h15.26c1,0,1.92,.59,2.35,1.5,.42,.91,.27,1.99-.38,2.76L16.24,113.37c-2.27,2.69-2.74,6.19-1.27,9.37,1.5,3.23,4.69,5.24,8.33,5.24h11.68c1.01,0,1.93,.59,2.35,1.51,.42,.92,.26,2-.4,2.77L4.59,169.55c-2.75,3.19-3.36,7.58-1.58,11.46,1.73,3.79,5.19,6.05,9.26,6.05H151.79c4.07,0,7.53-2.26,9.26-6.05,1.78-3.88,1.17-8.28-1.59-11.47Z"/><path id="Baumkontur" class="cls-4" d="M160.98,168.24l-32.35-37.29c-.33-.38-.06-.97,.44-.97h11.68c9.46,0,14.59-10.8,8.59-17.91l-34.21-40.21c-.32-.38-.05-.96,.45-.96h15.26c7.89,0,12.14-8.31,7.15-13.76L89.81,3.05c-1.85-2.03-4.48-3.05-7.11-3.05-.23,0-.45,.02-.67,.03-.22-.01-.45-.03-.67-.03-2.63,0-5.26,1.02-7.11,3.05L26.07,57.15c-4.99,5.45-.74,13.76,7.15,13.76h15.26c.5,0,.77,.58,.45,.96L14.72,112.08c-6,7.11-.88,17.91,8.59,17.91h11.68c.5,0,.77,.59,.44,.97L3.08,168.24c-6.95,8.04-1.37,20.82,9.19,20.82H151.79c10.56,0,16.14-12.78,9.19-20.82Zm-9.19,18.82H12.26c-4.07,0-7.53-2.26-9.26-6.05-1.78-3.88-1.17-8.28,1.58-11.46l32.35-37.29c.66-.76,.82-1.85,.4-2.77-.42-.92-1.34-1.51-2.35-1.51h-11.68c-3.64,0-6.83-2.01-8.33-5.24-1.48-3.18-1-6.69,1.27-9.37l34.21-40.21c.65-.76,.8-1.85,.38-2.76-.42-.91-1.34-1.5-2.35-1.5h-15.26c-3.68,0-5.92-2.12-6.8-4.1-.96-2.18-.55-4.48,1.14-6.32L75.72,4.39c1.38-1.52,3.43-2.39,5.63-2.39,.15,0,.3,.01,.45,.02h.1s.09,.01,.13,.01,.09,0,.13,0h.1c.15-.02,.3-.03,.45-.03,2.2,0,4.25,.87,5.61,2.38l48.19,54.12c1.67,1.83,2.08,4.12,1.12,6.3-.87,1.98-3.12,4.1-6.8,4.1h-15.26c-1,0-1.92,.59-2.35,1.5-.42,.91-.27,1.99,.38,2.76l34.21,40.21c2.27,2.69,2.75,6.2,1.27,9.38-1.5,3.23-4.69,5.24-8.33,5.24h-11.68c-1.01,0-1.93,.59-2.35,1.51-.42,.92-.26,2,.4,2.77l32.35,37.29c2.76,3.19,3.36,7.58,1.59,11.47-1.73,3.79-5.19,6.05-9.26,6.05Z"/></g></symbol><symbol id="Haus" viewBox="0 0 155.49 168.44"><path id="Haus-2" class="cls-3" d="M155.48,74.98c0-5.96-2.5-11.56-6.92-15.57L87.26,3.68c-2.69-2.45-6.1-3.68-9.51-3.68s-6.81,1.23-9.51,3.68L6.94,59.39c-4.42,4.01-6.94,9.72-6.94,15.67v79.24c0,7.81,6.33,14.14,14.14,14.14h127.22c7.81,0,14.14-6.32,14.14-14.12V74.98Zm-58.31,35.15c0,3.59-2.88,6.48-6.48,6.48h-25.91c-3.59,0-6.48-2.88-6.48-6.48v-25.91c0-3.59,2.89-6.48,6.48-6.48h25.92c3.6,0,6.47,2.88,6.47,6.48v25.91Z"/></symbol></defs><g id="Hintergrund"><rect class="cls-1" x="0" y="85.04" width="657.64" height="283.46"/></g><g id="Haus-mit-Baum"><use width="164.05" height="189.06" transform="translate(91.39 153.71)" xlink:href="#Baum"/><use width="155.49" height="168.44" transform="translate(25.14 174.34)" xlink:href="#Haus"/></g><g id="Baum-C"><use width="164.05" height="189.06" transform="translate(468.44 110.77)" xlink:href="#Baum"/><text class="cls-5" transform="translate(538.02 46.59)"><tspan x="0" y="0">C</tspan></text></g><g id="Baum-B"><use width="164.05" height="189.06" transform="translate(404.09 132.24)" xlink:href="#Baum"/><text class="cls-5" transform="translate(475.77 46.59)"><tspan x="0" y="0">B</tspan></text></g><g id="Baum-A"><use width="164.05" height="189.06" transform="translate(339.74 153.71)" xlink:href="#Baum"/><text class="cls-5" transform="translate(409.35 46.59)"><tspan x="0" y="0">A</tspan></text></g></svg>